<svg width="128" height="40" viewBox="0 0 128 40" fill="none" xmlns="http://www.w3.org/2000/svg">
<path d="M78.3488 9.60582V28.2753C78.3488 28.5565 78.6019 28.7689 78.88 28.719L91.6252 26.4724C91.8408 26.4349 91.997 26.2474 91.997 26.0287V9.60582C91.997 9.35585 91.7939 9.15588 91.5471 9.15588H78.8019C78.5519 9.15588 78.3519 9.35898 78.3519 9.60582H78.3488ZM87.1477 23.5415L83.3513 24.2102C83.2138 24.2352 83.0857 24.1289 83.0857 23.9883V12.9554C83.0857 12.8304 83.1857 12.7304 83.3107 12.7304H87.1071C87.232 12.7304 87.332 12.8304 87.332 12.9554V23.3197C87.332 23.429 87.2539 23.5228 87.1445 23.5415H87.1477Z" fill="#FB4760"/>
<path d="M94.2218 31.4407V8.44994C94.2218 8.19997 94.4249 8 94.6717 8H98.69C98.9399 8 99.1399 8.2031 99.1399 8.44994V16.652C99.1399 16.777 99.2399 16.877 99.3649 16.877H101.561C101.811 16.877 102.011 17.0801 102.011 17.3269V20.5265C102.011 20.7452 101.855 20.9327 101.636 20.9702L99.3211 21.3733C99.2118 21.392 99.1336 21.4857 99.1336 21.5951V30.7252C99.1336 30.9439 98.9774 31.1314 98.7618 31.1689L94.7436 31.8813C94.4686 31.9313 94.2124 31.7188 94.2124 31.4376L94.2218 31.4407Z" fill="#FB4760"/>
<path d="M117.394 8.44994V13.7742C117.394 13.8992 117.294 13.9992 117.169 13.9992H116.188C115.938 13.9992 115.738 14.2023 115.738 14.4492V17.3457C115.738 17.6269 115.991 17.8393 116.269 17.7894L117.135 17.6362C117.272 17.6112 117.4 17.7175 117.4 17.8581V22.195C117.4 22.4762 117.653 22.6887 117.931 22.6387L121.072 22.0857C121.287 22.0482 121.443 21.8607 121.443 21.642V8.44994C121.443 8.19997 121.24 8 120.994 8H117.853C117.603 8 117.403 8.2031 117.403 8.44994H117.394Z" fill="#FB4760"/>
<path d="M113.453 18.6453C111.563 21.4012 108.404 23.0666 104.32 23.5947C104.048 23.6291 103.808 23.4197 103.808 23.1479V20.492C103.808 20.2607 103.98 20.0701 104.208 20.0451C106.101 19.8389 107.67 19.2046 108.87 18.2423C109.035 18.111 108.938 17.8423 108.726 17.8423H104.645C104.395 17.8423 104.195 17.6392 104.195 17.3924V14.8958C104.195 14.6458 104.398 14.4459 104.645 14.4459H110.985C111.091 14.4459 111.185 14.3709 111.207 14.2678C111.291 13.8584 111.335 13.421 111.344 12.9648C111.344 12.8367 111.244 12.7336 111.119 12.7336H104.386C104.136 12.7336 103.936 12.5305 103.936 12.2837V9.61213C103.936 9.36216 104.139 9.16219 104.386 9.16219H114.916C115.166 9.16219 115.366 9.36529 115.366 9.61213V11.6775C115.366 12.7867 115.263 13.8178 115.053 14.774C115.053 14.774 114.706 16.7393 113.447 18.6516L113.453 18.6453Z" fill="#FB4760"/>
<path d="M118.825 23.8198C119.141 26.507 122.159 27.9912 127.29 28.0818C127.537 28.0849 127.733 28.2849 127.733 28.5317V31.5438C127.733 31.7938 127.527 32 127.277 31.9938C121.45 31.9063 118.075 30.4815 116.435 28.4942C116.347 28.3849 116.179 28.3849 116.091 28.4942C114.429 30.4815 111.032 31.9032 105.252 31.9938C104.999 31.9969 104.796 31.7938 104.796 31.5438V28.5317C104.796 28.2849 104.993 28.0849 105.236 28.0818C110.029 27.9974 113.026 26.5289 113.645 24.5072C113.695 24.3416 113.829 24.2198 114.001 24.1885L118.3 23.4293C118.553 23.3855 118.797 23.5605 118.825 23.8167V23.8198Z" fill="#FB4760"/>
<path d="M126.958 8.44994V22.3856C126.958 22.6043 126.802 22.7918 126.586 22.8293L123.343 23.4011C123.068 23.4511 122.812 23.2386 122.812 22.9574V8.44994C122.812 8.19997 123.015 8 123.261 8H126.505C126.755 8 126.955 8.2031 126.955 8.44994H126.958Z" fill="#FB4760"/>
<path d="M31.4427 24.5197C31.4427 24.2385 31.1896 24.026 30.9115 24.076L26.7339 24.8134C26.5184 24.8509 26.3621 25.0384 26.3621 25.2571V31.55C26.3621 31.8 26.5652 31.9999 26.8121 31.9999H47.8125C48.0624 31.9999 48.2624 31.7969 48.2624 31.55V28.8785C48.2624 28.6285 48.0593 28.4285 47.8125 28.4285H31.6677C31.5427 28.4285 31.4427 28.3286 31.4427 28.2036V24.5228V24.5197Z" fill="#FB4760"/>
<path d="M24.8247 18.5828C24.8247 18.3891 24.9497 18.2172 25.134 18.1547C28.3992 17.0361 30.2553 14.1521 30.2553 10.8494V9.60582C30.2553 9.35585 30.4584 9.15588 30.7052 9.15588H34.764C35.014 9.15588 35.214 9.35898 35.214 9.60582V10.8494C35.214 14.149 37.07 17.0361 40.3352 18.1547C40.5195 18.2172 40.6445 18.3891 40.6445 18.5828V22.0386C40.6445 22.3354 40.3633 22.551 40.0759 22.476C36.9231 21.623 34.3953 19.9482 32.9112 17.586C32.8237 17.4454 32.6174 17.4454 32.53 17.586C31.0489 19.9482 28.543 21.6261 25.3934 22.476C25.1059 22.5541 24.8247 22.3354 24.8247 22.0386V18.5828Z" fill="#FB4760"/>
<path d="M47.4779 24.9603L43.3785 25.6821C43.1035 25.7321 42.8504 25.5196 42.8504 25.2384V8.44994C42.8504 8.19997 43.0535 8 43.3003 8H47.3998C47.6498 8 47.8498 8.2031 47.8498 8.44994V24.5135C47.8498 24.7322 47.6935 24.9197 47.4779 24.9572V24.9603Z" fill="#FB4760"/>
<path d="M68.5316 21.742V8.44994C68.5316 8.19997 68.7347 8 68.9815 8H72.9998C73.2497 8 73.4497 8.2031 73.4497 8.44994V12.565C73.4497 12.69 73.5497 12.79 73.6747 12.79H75.8463C76.0962 12.79 76.2962 12.9931 76.2962 13.2399V16.2458C76.2962 16.4645 76.14 16.652 75.9244 16.6895L73.6341 17.0926C73.5247 17.1113 73.4466 17.2051 73.4466 17.3144V21.0327C73.4466 21.2514 73.2904 21.4389 73.0748 21.4764L69.0565 22.1857C68.7816 22.2357 68.5254 22.0232 68.5254 21.742H68.5316Z" fill="#FB4760"/>
<path d="M51.2055 17.9862C51.2055 17.7956 51.3273 17.6207 51.5085 17.5613C54.8519 16.4239 56.586 13.5899 56.586 10.1997V9.6092C56.586 9.35923 56.7891 9.15926 57.036 9.15926H61.1667C61.4166 9.15926 61.6166 9.36236 61.6166 9.6092V10.1997C61.6166 13.5587 63.3726 16.1677 66.6878 17.2926C66.8722 17.3551 66.9972 17.5269 66.9972 17.7206V21.1889C66.9972 21.4827 66.7191 21.6983 66.4347 21.6264C63.2758 20.8171 60.773 19.2986 59.3013 17.2426C59.2107 17.1145 59.0201 17.1176 58.9326 17.2488C57.4859 19.4235 54.9581 21.0233 51.771 21.8826C51.4835 21.9607 51.2023 21.742 51.2023 21.4452V17.9862H51.2055Z" fill="#FB4760"/>
<path d="M70.1498 23.1386H56.7296C54.2831 23.1386 52.299 25.1227 52.299 27.5693C52.299 30.0158 54.2831 31.9999 56.7296 31.9999H70.1498C72.5963 31.9999 74.5804 30.0158 74.5804 27.5693C74.5804 25.1227 72.5963 23.1386 70.1498 23.1386ZM68.7281 28.4285H58.1576C57.6826 28.4285 57.3014 28.0442 57.3014 27.5724C57.3014 27.1006 57.6857 26.7163 58.1576 26.7163H68.7281C69.203 26.7163 69.5842 27.1006 69.5842 27.5724C69.5842 28.0442 69.1999 28.4285 68.7281 28.4285Z" fill="#FB4760"/>
<path d="M3.20583 19.0862C3.44329 17.7333 4.50253 16.674 5.85548 16.4366L10.408 15.6335L18.4288 14.2181C18.6538 14.1775 18.8288 14.0025 18.8694 13.7775L19.813 8.42511C19.8568 8.17826 19.6412 7.96267 19.3943 8.00641L10.408 9.59058L6.95534 10.1999C5.60239 10.4373 4.54315 11.4966 4.30568 12.8495" fill="url(#paint0_linear_86_16463)"/>
<path d="M17.6129 20.9139C17.3754 22.2668 16.3162 23.3261 14.9632 23.5635L10.4107 24.3666L2.38987 25.782C2.1649 25.8226 1.98993 25.9976 1.94931 26.2226L1.00568 31.575C0.961935 31.8218 1.17753 32.0374 1.42437 31.9937L10.4107 30.4095L13.8634 29.8002C15.2163 29.5628 16.2756 28.5035 16.513 27.1506" fill="url(#paint1_linear_86_16463)"/>
<path d="M4.30532 12.8496L4.2772 13.0058C4.00536 14.5556 5.0396 16.0336 6.5894 16.3085L15.6382 17.9052C16.9818 18.1427 17.8754 19.4206 17.6411 20.7642L17.613 20.9204L16.5131 27.1571L16.5412 27.0009C16.8131 25.4511 15.7788 23.9731 14.229 23.6982L5.18021 22.1015C3.83663 21.864 2.943 20.5861 3.17734 19.2425L3.20546 19.0863L4.30532 12.8496Z" fill="#FB4760"/>
<defs>
<linearGradient id="paint0_linear_86_16463" x1="4.41192" y1="12.2684" x2="18.6694" y2="14.8868" gradientUnits="userSpaceOnUse">
<stop stop-color="#89163A"/>
<stop offset="0.03" stop-color="#931A3D"/>
<stop offset="0.14" stop-color="#B32848"/>
<stop offset="0.26" stop-color="#CD3350"/>
<stop offset="0.38" stop-color="#E13C57"/>
<stop offset="0.53" stop-color="#F0425C"/>
<stop offset="0.71" stop-color="#F8455F"/>
<stop offset="1" stop-color="#FB4760"/>
</linearGradient>
<linearGradient id="paint1_linear_86_16463" x1="2.14928" y1="25.1133" x2="16.4068" y2="27.7318" gradientUnits="userSpaceOnUse">
<stop stop-color="#FB4760"/>
<stop offset="0.29" stop-color="#F8455F"/>
<stop offset="0.47" stop-color="#F0425C"/>
<stop offset="0.62" stop-color="#E13C57"/>
<stop offset="0.74" stop-color="#CD3350"/>
<stop offset="0.86" stop-color="#B32848"/>
<stop offset="0.97" stop-color="#931A3D"/>
<stop offset="1" stop-color="#89163A"/>
</linearGradient>
</defs>
</svg>
